<svg aria-hidden="true" style="position: absolute; width: 0; height: 0; overflow: hidden;" version="1.1" xmlns="http://www.w3.org/2000/svg" xmlns:xlink="http://www.w3.org/1999/xlink">
<defs>
<symbol id="icon-msg" viewBox="0 0 32 32">
<path d="M28.8 0h-25.6c-1.765 0-3.2 1.435-3.2 3.2v28.8l8.533-6.4h20.267c1.765 0 3.2-1.435 3.2-3.2v-19.2c0-1.765-1.435-3.2-3.2-3.2zM28.8 22.4h-21.333l-4.267 3.2v-22.4h25.6v19.2z"></path>
</symbol>
<symbol id="icon-diamond" viewBox="0 0 32 32">
<path d="M25.824 1.2c-1.018 0-18.524 0-19.647 0l-6.178 8.424 16.066 21.175 15.934-21.178zM8.783 10.55l4.527 13.523-10.26-13.523zM10.755 10.55h10.497l-5.213 15.788zM23.221 10.55h5.74l-10.229 13.596zM24.877 3.070l4.114 5.61h-5.768l-1.841-5.61zM19.414 3.070l1.841 5.61h-10.508l1.841-5.61zM7.125 3.070h3.494l-1.841 5.61h-5.768z"></path>
</symbol>
<symbol id="icon-three-dots" viewBox="0 0 8 32">
<path d="M4 19.555c1.964 0 3.556-1.592 3.556-3.556s-1.592-3.556-3.556-3.556c-1.964 0-3.556 1.592-3.556 3.556s1.592 3.556 3.556 3.556z"></path>
<path d="M4 7.111c1.964 0 3.556-1.592 3.556-3.555s-1.592-3.556-3.556-3.556c-1.964 0-3.556 1.592-3.556 3.556s1.592 3.555 3.556 3.555z"></path>
<path d="M4 32c1.964 0 3.556-1.592 3.556-3.556s-1.592-3.556-3.556-3.556c-1.964 0-3.556 1.592-3.556 3.556s1.592 3.556 3.556 3.556z"></path>
</symbol>
<symbol id="icon-menu-shape" viewBox="0 0 6 32">
<path d="M0 16v16l0.268-1.428c0.287-1.526 0.756-3.012 1.397-4.427 0.567-1.25 1.264-2.437 2.082-3.54l0.354-0.477 0.505-0.744c0.724-1.067 1.242-2.26 1.528-3.517l0.16-0.796c0.071-0.352 0.107-0.711 0.107-1.070s-0.036-0.718-0.107-1.070l-0.16-0.796c-0.286-1.257-0.805-2.45-1.528-3.517l-0.505-0.744-0.354-0.477c-0.817-1.103-1.515-2.29-2.082-3.54-0.641-1.414-1.11-2.9-1.397-4.426l-0.268-1.428v16z"></path>
</symbol>
<symbol id="icon-checkmark" viewBox="0 0 32 32">
<path d="M10.466 21.091l-7.311-7.311-3.139 3.139 10.45 10.45 21.55-21.55-3.139-3.139-18.411 18.411z"></path>
</symbol>
<symbol id="icon-info" viewBox="0 0 32 32">
<path d="M13.124 3.056c0 0.763 0.303 1.494 0.842 2.034s1.271 0.842 2.034 0.842c0.763 0 1.494-0.303 2.034-0.842s0.842-1.271 0.842-2.034c0-0.763-0.303-1.494-0.842-2.034s-1.271-0.842-2.034-0.842c-0.763 0-1.494 0.303-2.034 0.842s-0.842 1.271-0.842 2.034zM17.438 10.607h-2.876c-0.198 0-0.36 0.162-0.36 0.36v20.854c0 0.198 0.162 0.36 0.36 0.36h2.876c0.198 0 0.36-0.162 0.36-0.36v-20.854c0-0.198-0.162-0.36-0.36-0.36z"></path>
</symbol>
<symbol id="icon-first-arrow" viewBox="0 0 35 32">
<path d="M33.406 2.861l-2.877-2.861-15.984 16 16 16 2.861-2.861-13.139-13.139 13.139-13.139z"></path>
<path d="M18.861 2.861l-2.877-2.861-15.984 16 16 16 2.861-2.861-13.139-13.139 13.139-13.139z"></path>
</symbol>
<symbol id="icon-last-arrow" viewBox="0 0 35 32">
<path d="M1.503 2.861l2.877-2.861 15.984 16-16 16-2.861-2.861 13.139-13.139-13.139-13.139z"></path>
<path d="M16.049 2.861l2.877-2.861 15.984 16-16 16-2.861-2.861 13.139-13.139-13.139-13.139z"></path>
</symbol>
<symbol id="icon-next-arrow" viewBox="0 0 21 32">
<path d="M0.746 3.611l2.712-2.697 15.070 15.086-15.086 15.086-2.697-2.697 12.389-12.389-12.389-12.389z"></path>
</symbol>
<symbol id="icon-prev-arrow" viewBox="0 0 21 32">
<path d="M19.825 3.611l-2.712-2.697-15.070 15.086 15.086 15.086 2.697-2.697-12.389-12.389 12.389-12.389z"></path>
</symbol>
<symbol id="icon-calendar" viewBox="0 0 32 32">
<path d="M30.375 3.188h-6.563v-2.5c0-0.172-0.141-0.313-0.312-0.313h-2.188c-0.172 0-0.312 0.141-0.312 0.313v2.5h-10v-2.5c0-0.172-0.141-0.313-0.313-0.313h-2.188c-0.172 0-0.313 0.141-0.313 0.313v2.5h-6.563c-0.691 0-1.25 0.559-1.25 1.25v25.938c0 0.691 0.559 1.25 1.25 1.25h28.75c0.691 0 1.25-0.559 1.25-1.25v-25.938c0-0.691-0.559-1.25-1.25-1.25zM28.812 28.812h-25.625v-14.844h25.625v14.844zM3.188 11.313v-5.313h5v1.875c0 0.172 0.141 0.313 0.313 0.313h2.188c0.172 0 0.313-0.141 0.313-0.313v-1.875h10v1.875c0 0.172 0.141 0.313 0.312 0.313h2.188c0.172 0 0.312-0.141 0.312-0.313v-1.875h5v5.313h-25.625z"></path>
</symbol>
<symbol id="icon-congratulation" viewBox="0 0 32 32">
<path d="M25.609 18.581h-19.219l-2.064 4.129h1.867v9.29h19.613v-9.29h1.867l-2.064-4.129zM24.971 19.613l1.032 2.065h-8.136l-1.032-2.065h8.136zM7.029 19.613h8.136l-1.032 2.065h-8.136l1.032-2.065zM24.774 30.968h-8.258v-3.613h-1.032v3.613h-8.258v-8.258h7.545l0.713-1.427v4.523h1.032v-4.523l0.713 1.427h7.545v8.258z"></path>
<path d="M8.258 26.839h3.097v1.032h-3.097v-1.032z"></path>
<path d="M8.258 28.903h3.097v1.032h-3.097v-1.032z"></path>
<path d="M12.387 28.903h1.032v1.032h-1.032v-1.032z"></path>
<path d="M13.616 8.394l2.384-0.608 2.384 0.607 0.187-2.559 1.266-2.163-2.239-0.969-1.597-1.975-1.598 1.975-2.239 0.969 1.266 2.163 0.187 2.56zM15.046 3.548l0.954-1.179 0.954 1.18 1.403 0.608-0.798 1.364-0.115 1.57-1.444-0.368-1.444 0.367-0.115-1.57-0.798-1.364 1.403-0.607z"></path>
<path d="M5.667 9.448l0.75-1.28-1.329-0.576-0.959-1.186-0.959 1.186-1.329 0.576 0.75 1.28 0.111 1.527 1.427-0.363 1.428 0.363 0.11-1.527zM4.655 9.133l-0.039 0.537-0.487-0.124-0.487 0.124-0.040-0.537-0.282-0.483 0.492-0.213 0.317-0.391 0.316 0.391 0.492 0.213-0.282 0.482z"></path>
<path d="M29.409 9.448l0.75-1.28-1.329-0.576-0.959-1.186-0.959 1.186-1.329 0.576 0.75 1.28 0.111 1.527 1.427-0.363 1.428 0.363 0.11-1.527zM28.397 9.133l-0.039 0.537-0.487-0.124-0.487 0.124-0.039-0.537-0.282-0.483 0.492-0.213 0.316-0.391 0.316 0.391 0.492 0.213-0.282 0.482z"></path>
<path d="M6.423 12.3c0.983 0.655 1.856 1.455 2.594 2.378l2.044 2.554-0.423-3.382c-0.221-1.766-1.164-3.391-2.587-4.458l-0.494-0.371-1.513 3.025 0.379 0.253zM7.911 10.623c0.873 0.826 1.465 1.925 1.668 3.114-0.652-0.766-1.392-1.448-2.207-2.036l0.539-1.079z"></path>
<path d="M21.362 13.851l-0.423 3.382 2.044-2.555c0.738-0.923 1.611-1.723 2.594-2.378l0.379-0.253-1.513-3.025-0.494 0.372c-1.423 1.067-2.366 2.692-2.587 4.458zM24.629 11.702c-0.815 0.588-1.555 1.27-2.207 2.036 0.203-1.189 0.795-2.289 1.668-3.114l0.539 1.079z"></path>
<path d="M18.065 17.548h1.032v-2.162c0-2.479 0.874-4.892 2.461-6.797l-0.793-0.661c-1.741 2.090-2.7 4.739-2.7 7.458v2.163z"></path>
<path d="M21.677 6.194h1.032v1.032h-1.032v-1.032z"></path>
<path d="M23.226 4.129h1.032v1.032h-1.032v-1.032z"></path>
<path d="M12.903 17.548h1.032v-2.162c0-2.72-0.959-5.368-2.7-7.458l-0.793 0.661c1.587 1.905 2.461 4.318 2.461 6.797v2.163z"></path>
<path d="M9.29 6.194h1.032v1.032h-1.032v-1.032z"></path>
<path d="M7.742 4.129h1.032v1.032h-1.032v-1.032z"></path>
<path d="M15.484 8.774h1.032v1.032h-1.032v-1.032z"></path>
<path d="M15.484 10.839h1.032v6.71h-1.032v-6.71z"></path>
<path d="M29.935 13.936h1.032v1.032h-1.032v-1.032z"></path>
<path d="M29.935 16h1.032v1.032h-1.032v-1.032z"></path>
<path d="M30.968 14.968h1.032v1.032h-1.032v-1.032z"></path>
<path d="M28.903 14.968h1.032v1.032h-1.032v-1.032z"></path>
<path d="M28.387 0h1.032v1.032h-1.032v-1.032z"></path>
<path d="M28.387 2.064h1.032v1.032h-1.032v-1.032z"></path>
<path d="M29.419 1.032h1.032v1.032h-1.032v-1.032z"></path>
<path d="M27.355 1.032h1.032v1.032h-1.032v-1.032z"></path>
<path d="M1.032 16h1.032v1.032h-1.032v-1.032z"></path>
<path d="M1.032 18.064h1.032v1.032h-1.032v-1.032z"></path>
<path d="M2.065 17.032h1.032v1.032h-1.032v-1.032z"></path>
<path d="M0 17.032h1.032v1.032h-1.032v-1.032z"></path>
<path d="M1.032 0h1.032v1.032h-1.032v-1.032z"></path>
<path d="M1.032 2.064h1.032v1.032h-1.032v-1.032z"></path>
<path d="M2.065 1.032h1.032v1.032h-1.032v-1.032z"></path>
<path d="M0 1.032h1.032v1.032h-1.032v-1.032z"></path>
</symbol>
<symbol id="icon-eye" viewBox="0 0 32 32">
<path d="M2.99 15.866c0.81-1.22 2.44-3.439 4.649-5.339 2.22-1.912 4.877-3.37 7.771-3.37s5.549 1.458 7.771 3.37c2.209 1.9 3.84 4.118 4.649 5.339 0.027 0.039 0.042 0.086 0.042 0.134s-0.015 0.094-0.042 0.134c-0.809 1.22-2.44 3.439-4.649 5.339-2.22 1.912-4.877 3.37-7.771 3.37s-5.549-1.458-7.771-3.37c-2.211-1.9-3.841-4.117-4.649-5.339-0.027-0.039-0.042-0.086-0.042-0.134s0.015-0.094 0.042-0.134zM15.41 4.211c-3.893 0-7.211 1.949-9.693 4.083-2.495 2.144-4.297 4.608-5.181 5.938-0.349 0.523-0.535 1.138-0.535 1.766s0.186 1.243 0.535 1.766c0.884 1.332 2.686 3.796 5.181 5.942 2.48 2.134 5.8 4.083 9.693 4.083s7.211-1.949 9.693-4.083c2.495-2.144 4.297-4.608 5.181-5.94 0.349-0.523 0.536-1.138 0.536-1.766s-0.186-1.243-0.536-1.766c-0.884-1.332-2.686-3.796-5.181-5.94-2.48-2.134-5.8-4.083-9.693-4.083zM15.41 19.93c1.042 0 2.042-0.414 2.779-1.151s1.151-1.737 1.151-2.779-0.414-2.042-1.151-2.779c-0.737-0.737-1.736-1.151-2.779-1.151s-2.042 0.414-2.779 1.151c-0.737 0.737-1.151 1.737-1.151 2.779s0.414 2.042 1.151 2.779c0.737 0.737 1.737 1.151 2.779 1.151z"></path>
</symbol>
<symbol id="icon-facebook" viewBox="0 0 32 32">
<path d="M24.889 1.185h-4.444c-1.965 0-3.849 0.78-5.238 2.17s-2.17 3.273-2.17 5.238v4.444h-4.444v5.926h4.444v11.852h5.926v-11.852h4.444l1.481-5.926h-5.926v-4.444c0-0.393 0.156-0.77 0.434-1.048s0.655-0.434 1.048-0.434h4.444v-5.926z"></path>
</symbol>
<symbol id="icon-search" viewBox="0 0 32 32">
<path d="M13.804 26.353c2.784-0.001 5.488-0.933 7.681-2.648l6.896 6.896 2.218-2.218-6.896-6.896c1.716-2.193 2.649-4.898 2.649-7.683 0-6.919-5.63-12.549-12.549-12.549s-12.549 5.63-12.549 12.549 5.63 12.549 12.549 12.549zM13.804 4.392c5.191 0 9.412 4.221 9.412 9.412s-4.221 9.412-9.412 9.412c-5.191 0-9.412-4.221-9.412-9.412s4.221-9.412 9.412-9.412z"></path>
</symbol>
<symbol id="icon-trash" viewBox="0 0 32 32">
<path d="M10.063 3.188h-0.313c0.172 0 0.313-0.141 0.313-0.313v0.313h11.875v-0.313c0 0.172 0.141 0.313 0.312 0.313h-0.312v2.813h2.812v-3.125c0-1.379-1.121-2.5-2.5-2.5h-12.5c-1.379 0-2.5 1.121-2.5 2.5v3.125h2.813v-2.813zM29.75 6h-27.5c-0.691 0-1.25 0.559-1.25 1.25v1.25c0 0.172 0.141 0.313 0.313 0.313h2.359l0.965 20.43c0.063 1.332 1.164 2.383 2.496 2.383h17.734c1.336 0 2.434-1.047 2.496-2.383l0.965-20.43h2.359c0.172 0 0.312-0.141 0.312-0.313v-1.25c0-0.691-0.559-1.25-1.25-1.25zM24.566 28.812h-17.133l-0.945-20h19.024l-0.945 20z"></path>
</symbol>
<symbol id="icon-bell" viewBox="0 0 32 32">
<path stroke-linejoin="round" stroke-linecap="round" stroke-miterlimit="4" stroke-width="2.4" d="M24 10.667c0-2.122-0.843-4.157-2.343-5.657s-3.535-2.343-5.657-2.343c-2.122 0-4.157 0.843-5.657 2.343s-2.343 3.535-2.343 5.657c0 9.333-4 12-4 12h24c0 0-4-2.667-4-12z"></path>
<path stroke-linejoin="round" stroke-linecap="round" stroke-miterlimit="4" stroke-width="2.4" d="M18.307 28c-0.234 0.404-0.571 0.74-0.976 0.973s-0.864 0.356-1.331 0.356c-0.467 0-0.926-0.123-1.331-0.356s-0.741-0.568-0.976-0.973"></path>
</symbol>
<symbol id="icon-caret-down-filled" viewBox="0 0 32 32">
<path d="M29.683 7.167h-27.367c-0.821 0-1.279 0.867-0.771 1.458l13.683 15.867c0.392 0.454 1.146 0.454 1.542 0l13.683-15.867c0.508-0.592 0.050-1.458-0.771-1.458z"></path>
</symbol>
<symbol id="icon-close" viewBox="0 0 32 32">
<path d="M13.474 16l-13.023 13.023 2.526 2.526 13.023-13.023 13.023 13.023 2.526-2.526-13.023-13.023 13.023-13.023-2.526-2.526-13.023 13.023-13.023-13.023-2.526 2.526 13.023 13.023z"></path>
</symbol>
<symbol id="icon-edit" viewBox="0 0 32 32">
<path d="M22 22v6h-16v-24h10v-2h-10c-0.53 0-1.039 0.211-1.414 0.586s-0.586 0.884-0.586 1.414v24c0 0.53 0.211 1.039 0.586 1.414s0.884 0.586 1.414 0.586h16c0.53 0 1.039-0.211 1.414-0.586s0.586-0.884 0.586-1.414v-6h-2z"></path>
<path d="M29.54 5.76l-3.3-3.3c-0.299-0.293-0.701-0.457-1.12-0.457s-0.821 0.164-1.12 0.457l-14 14v5.54h5.53l14-14c0.293-0.299 0.457-0.701 0.457-1.12s-0.164-0.821-0.457-1.12h0.010zM14.7 20h-2.7v-2.7l9.44-9.45 2.71 2.71-9.45 9.44zM25.56 9.15l-2.71-2.71 2.27-2.27 2.71 2.71-2.27 2.27z"></path>
</symbol>
<symbol id="icon-lock" viewBox="0 0 32 32">
<path d="M24.421 11.228h2.807c0.372 0 0.729 0.148 0.992 0.411s0.411 0.62 0.411 0.992v16.842c0 0.372-0.148 0.729-0.411 0.992s-0.62 0.411-0.992 0.411h-22.456c-0.372 0-0.729-0.148-0.992-0.411s-0.411-0.62-0.411-0.992v-16.842c0-0.372 0.148-0.729 0.411-0.992s0.62-0.411 0.992-0.411h2.807v-1.404c0-2.233 0.887-4.375 2.466-5.955s3.721-2.466 5.955-2.466c2.233 0 4.375 0.887 5.955 2.466s2.467 3.721 2.467 5.955v1.404zM6.175 14.035v14.035h19.649v-14.035h-19.649zM14.597 19.649h2.807v2.807h-2.807v-2.807zM8.982 19.649h2.807v2.807h-2.807v-2.807zM20.211 19.649h2.807v2.807h-2.807v-2.807zM21.614 11.228v-1.404c0-1.489-0.591-2.917-1.644-3.97s-2.481-1.644-3.97-1.644c-1.489 0-2.917 0.591-3.97 1.644s-1.644 2.481-1.644 3.97v1.404h11.228z"></path>
</symbol>
<symbol id="icon-mail" viewBox="0 0 32 32">
<path d="M4.148 13.037v11.852h23.704v-11.852l-11.852 4.444-11.852-4.444zM4.148 7.111v2.963l11.852 4.444 11.852-4.444v-2.963h-23.704zM4.148 4.148h23.704c0.786 0 1.539 0.312 2.095 0.868s0.868 1.309 0.868 2.095v17.778c0 0.786-0.312 1.539-0.868 2.095s-1.309 0.868-2.095 0.868h-23.704c-0.786 0-1.539-0.312-2.095-0.868s-0.868-1.309-0.868-2.095v-17.778c0-0.786 0.312-1.539 0.868-2.095s1.309-0.868 2.095-0.868z"></path>
</symbol>
<symbol id="icon-phone" viewBox="0 0 32 32">
<path d="M24.011 17.401c-0.145-0.146-0.318-0.261-0.509-0.34s-0.394-0.12-0.6-0.12c-0.206 0-0.41 0.041-0.6 0.12s-0.363 0.195-0.509 0.34l-2.5 2.5c-1.159-0.345-3.322-1.129-4.693-2.5s-2.155-3.534-2.5-4.693l2.5-2.5c0.146-0.146 0.261-0.318 0.34-0.509s0.12-0.394 0.12-0.6c0-0.206-0.041-0.41-0.12-0.6s-0.195-0.363-0.34-0.509l-6.275-6.274c-0.146-0.146-0.318-0.261-0.509-0.34s-0.394-0.12-0.6-0.12c-0.206 0-0.41 0.041-0.6 0.12s-0.363 0.195-0.509 0.34l-4.254 4.254c-0.596 0.596-0.932 1.415-0.919 2.251 0.036 2.234 0.627 9.992 6.742 16.107s13.873 6.704 16.108 6.742h0.044c0.828 0 1.611-0.326 2.204-0.919l4.254-4.254c0.146-0.146 0.261-0.319 0.34-0.509s0.12-0.394 0.12-0.6c0-0.206-0.041-0.41-0.12-0.6s-0.195-0.363-0.34-0.509l-6.275-6.276zM23.812 27.929c-1.958-0.033-8.656-0.558-13.918-5.823-5.28-5.28-5.791-12.002-5.823-13.92l3.145-3.145 4.056 4.056-2.028 2.028c-0.184 0.184-0.32 0.412-0.394 0.661s-0.086 0.514-0.032 0.769c0.038 0.18 0.958 4.458 3.562 7.062s6.882 3.525 7.062 3.562c0.255 0.055 0.52 0.045 0.77-0.030s0.477-0.21 0.661-0.395l2.030-2.028 4.056 4.056-3.147 3.145z"></path>
</symbol>
<symbol id="icon-policy" viewBox="0 0 32 32">
<path d="M16 0l-13.091 5.818v8.727c0 8.073 5.585 15.622 13.091 17.455 7.505-1.833 13.091-9.382 13.091-17.455v-8.727l-13.091-5.818zM26.182 14.545c0 2.691-0.742 5.309-2.007 7.578l-2.109-2.109c0.924-1.398 1.336-3.073 1.167-4.741s-0.911-3.225-2.098-4.408c-1.364-1.362-3.214-2.128-5.142-2.128s-3.777 0.765-5.142 2.128c-1.362 1.364-2.128 3.214-2.128 5.142s0.765 3.777 2.128 5.142c1.185 1.184 2.742 1.923 4.409 2.093s3.341-0.241 4.74-1.162l2.502 2.502c-1.731 2.065-3.971 3.651-6.502 4.422-5.847-1.818-10.182-7.884-10.182-14.458v-6.836l10.182-4.524 10.182 4.524v6.836zM16 20.364c-2.415 0-4.364-1.949-4.364-4.364s1.949-4.364 4.364-4.364c2.415 0 4.364 1.949 4.364 4.364s-1.949 4.364-4.364 4.364z"></path>
</symbol>
<symbol id="icon-sign-out" viewBox="0 0 32 32">
<path d="M6.815 24.889h2.963v2.963h17.778v-23.704h-17.778v2.963h-2.963v-4.444c0-0.393 0.156-0.77 0.434-1.048s0.655-0.434 1.048-0.434h20.741c0.393 0 0.77 0.156 1.048 0.434s0.434 0.655 0.434 1.048v26.667c0 0.393-0.156 0.77-0.434 1.047s-0.655 0.434-1.048 0.434h-20.741c-0.393 0-0.77-0.156-1.048-0.434s-0.434-0.655-0.434-1.047v-4.444zM9.778 14.518h10.37v2.963h-10.37v4.444l-7.407-5.926 7.407-5.926v4.444z"></path>
</symbol>
<symbol id="icon-user" viewBox="0 0 32 32">
<path d="M29.535 25.828c-0.737-1.745-1.806-3.331-3.149-4.668-1.338-1.341-2.923-2.41-4.668-3.148-0.016-0.008-0.031-0.012-0.047-0.020 2.434-1.758 4.016-4.621 4.016-7.852 0-5.352-4.336-9.688-9.687-9.688s-9.688 4.336-9.688 9.688c0 3.23 1.582 6.094 4.016 7.855-0.016 0.008-0.031 0.012-0.047 0.020-1.75 0.738-3.32 1.797-4.668 3.148-1.341 1.338-2.41 2.923-3.148 4.668-0.725 1.708-1.116 3.539-1.152 5.395-0.001 0.042 0.006 0.083 0.022 0.122s0.038 0.074 0.067 0.104c0.029 0.030 0.064 0.054 0.102 0.070s0.080 0.024 0.121 0.024h2.344c0.172 0 0.309-0.137 0.313-0.305 0.078-3.016 1.289-5.84 3.43-7.98 2.215-2.215 5.156-3.434 8.289-3.434s6.074 1.219 8.289 3.434c2.141 2.141 3.352 4.965 3.43 7.98 0.004 0.172 0.141 0.305 0.312 0.305h2.344c0.042 0 0.083-0.008 0.121-0.024s0.073-0.040 0.102-0.070c0.029-0.030 0.052-0.065 0.067-0.104s0.023-0.080 0.021-0.122c-0.039-1.867-0.426-3.684-1.152-5.398zM16 16.859c-1.793 0-3.48-0.699-4.75-1.969s-1.969-2.957-1.969-4.75c0-1.793 0.699-3.48 1.969-4.75s2.957-1.969 4.75-1.969c1.793 0 3.48 0.699 4.75 1.969s1.969 2.957 1.969 4.75-0.699 3.48-1.969 4.75c-1.27 1.27-2.957 1.969-4.75 1.969z"></path>
</symbol>
<symbol id="icon-history" viewBox="0 0 37 32">
<path d="M21.333 0c-4.243 0-8.313 1.686-11.314 4.686s-4.686 7.070-4.686 11.314h-5.333l6.916 6.916 0.124 0.249 7.182-7.164h-5.333c0-6.88 5.564-12.444 12.444-12.444s12.444 5.564 12.444 12.444c0 6.88-5.564 12.444-12.444 12.444-3.431 0-6.542-1.404-8.782-3.662l-2.524 2.524c1.482 1.49 3.244 2.671 5.184 3.477s4.021 1.219 6.123 1.216c4.243 0 8.313-1.686 11.314-4.686s4.686-7.070 4.686-11.314c0-4.243-1.686-8.313-4.686-11.314s-7.070-4.686-11.314-4.686zM19.556 8.889v8.889l7.609 4.516 1.28-2.151-6.222-3.698v-7.556h-2.667z"></path>
</symbol>
<symbol id="icon-lookup" viewBox="0 0 26 32">
<path d="M19.091 9.182v-1.636c0-0.15-0.123-0.273-0.273-0.273h-13.091c-0.15 0-0.273 0.123-0.273 0.273v1.636c0 0.15 0.123 0.273 0.273 0.273h13.091c0.15 0 0.273-0.123 0.273-0.273zM5.727 12.182c-0.15 0-0.273 0.123-0.273 0.273v1.636c0 0.15 0.123 0.273 0.273 0.273h6.273c0.15 0 0.273-0.123 0.273-0.273v-1.636c0-0.15-0.123-0.273-0.273-0.273h-6.273zM10.636 27.591h-7.909v-24h19.091v11.727c0 0.15 0.123 0.273 0.273 0.273h1.909c0.15 0 0.273-0.123 0.273-0.273v-13.091c0-0.603-0.488-1.091-1.091-1.091h-21.818c-0.603 0-1.091 0.488-1.091 1.091v26.727c0 0.604 0.488 1.091 1.091 1.091h9.273c0.15 0 0.273-0.123 0.273-0.273v-1.909c0-0.15-0.123-0.273-0.273-0.273zM25.831 29.347l-3.181-3.181c0.76-1.006 1.214-2.26 1.214-3.62 0-3.314-2.686-6-6-6s-6 2.686-6 6 2.686 6 6 6c1.221 0 2.352-0.365 3.3-0.989l3.228 3.228c0.055 0.055 0.123 0.079 0.191 0.079s0.14-0.027 0.191-0.079l1.057-1.057c0.025-0.025 0.045-0.055 0.059-0.088s0.021-0.068 0.021-0.103-0.007-0.071-0.021-0.103c-0.014-0.033-0.034-0.063-0.059-0.088zM17.864 26.364c-2.11 0-3.818-1.708-3.818-3.818s1.708-3.818 3.818-3.818c2.11 0 3.818 1.708 3.818 3.818s-1.708 3.818-3.818 3.818z"></path>
</symbol>
<symbol id="icon-policy1" viewBox="0 0 26 32">
<path d="M13.091 0l-13.091 5.818v8.727c0 8.073 5.585 15.622 13.091 17.455 7.505-1.833 13.091-9.382 13.091-17.455v-8.727l-13.091-5.818zM23.273 14.545c0 2.691-0.742 5.309-2.007 7.578l-2.109-2.109c0.924-1.398 1.336-3.073 1.167-4.741s-0.911-3.225-2.098-4.408c-1.364-1.362-3.214-2.128-5.142-2.128s-3.777 0.765-5.142 2.128c-1.362 1.364-2.128 3.214-2.128 5.142s0.765 3.777 2.128 5.142c1.185 1.184 2.742 1.923 4.409 2.093s3.341-0.241 4.74-1.162l2.502 2.502c-1.731 2.065-3.971 3.651-6.502 4.422-5.847-1.818-10.182-7.884-10.182-14.458v-6.836l10.182-4.524 10.182 4.524v6.836zM13.091 20.364c-2.415 0-4.364-1.949-4.364-4.364s1.949-4.364 4.364-4.364c2.415 0 4.364 1.949 4.364 4.364s-1.949 4.364-4.364 4.364z"></path>
</symbol>
<symbol id="icon-logo" viewBox="0 0 87 32">
<path stroke-linejoin="miter" stroke-linecap="butt" stroke-miterlimit="4" stroke-width="0.5926" d="M2.364 29.534l0.002 0.002c1.412 1.451 3.278 2.167 5.567 2.167 2.61 0 4.622-0.645 5.979-1.987s2.012-3.334 2.012-5.916v-6.001h-6.727v5.755c0 0.742-0.117 1.249-0.31 1.561-0.179 0.289-0.435 0.432-0.812 0.432-0.386 0-0.641-0.136-0.815-0.393-0.19-0.304-0.307-0.822-0.307-1.599v-15.178c0-0.706 0.092-1.201 0.249-1.515 0.147-0.254 0.408-0.407 0.873-0.407 0.456 0 0.71 0.14 0.851 0.358 0.076 0.118 0.147 0.307 0.196 0.586 0.049 0.277 0.075 0.625 0.075 1.049v4.769h6.656v-5.508c0-2.362-0.706-4.213-2.156-5.504-1.437-1.279-3.321-1.906-5.623-1.906-2.636 0-4.627 0.783-5.906 2.402-1.264 1.6-1.872 3.943-1.872 6.981v13.946c0 2.474 0.678 4.456 2.068 5.91zM17.056 31.126v0.296h6.479v-30.844h-6.479v30.548zM27.998 31.126v0.296h6.692v-24.441h3.617v-6.403h-13.926v6.403h3.617v24.144zM39.434 31.126v0.296h13.181v-6.474h-6.383v-6.345h5.745v-6.298h-5.745v-5.289h5.993v-6.439h-12.791v30.548zM55.867 29.534l0.002 0.002c1.412 1.451 3.278 2.167 5.567 2.167 2.61 0 4.622-0.645 5.979-1.987s2.012-3.334 2.012-5.916v-6.001h-6.727v5.755c0 0.742-0.117 1.249-0.311 1.561-0.179 0.289-0.435 0.432-0.812 0.432-0.386 0-0.641-0.136-0.815-0.394-0.19-0.304-0.307-0.822-0.307-1.599v-15.178c0-0.706 0.092-1.201 0.249-1.515 0.147-0.254 0.408-0.407 0.873-0.407 0.456 0 0.71 0.14 0.85 0.358 0.076 0.118 0.147 0.307 0.197 0.586 0.049 0.277 0.075 0.625 0.075 1.049v4.769h6.656v-5.508c0-2.362-0.706-4.213-2.156-5.504-1.437-1.279-3.321-1.906-5.623-1.906-2.636 0-4.627 0.783-5.906 2.402-1.264 1.6-1.872 3.943-1.872 6.981v13.946c0 2.474 0.678 4.456 2.068 5.91zM72.58 29.381l0.002 0.002c1.347 1.561 3.306 2.321 5.827 2.321s4.48-0.761 5.827-2.321c1.339-1.551 1.987-3.731 1.987-6.497v-14.404c0-2.65-0.649-4.697-1.998-6.087-1.349-1.414-3.305-2.098-5.816-2.098s-4.467 0.685-5.816 2.098c-1.349 1.39-1.998 3.437-1.998 6.087v14.404c0 2.744 0.649 4.923 1.985 6.496zM79.231 6.899l0.004 0.010 0.004 0.009c0.164 0.345 0.255 0.825 0.255 1.458v14.791c0 0.829-0.094 1.443-0.263 1.861-0.075 0.187-0.178 0.31-0.302 0.389-0.125 0.080-0.293 0.129-0.523 0.129-0.245 0-0.431-0.048-0.571-0.128-0.137-0.079-0.248-0.198-0.331-0.372-0.185-0.387-0.29-0.991-0.29-1.845v-14.756c0-0.739 0.124-1.242 0.331-1.553 0.193-0.289 0.475-0.44 0.897-0.44 0.235 0 0.403 0.046 0.522 0.117 0.115 0.069 0.204 0.172 0.265 0.329z"></path>
</symbol>
</defs>
</svg>
